<svg width="44" height="45" viewBox="0 0 44 45" fill="none" xmlns="http://www.w3.org/2000/svg">
<rect y="0.269531" width="44" height="44" rx="6" fill="#FBE9EF" fill-opacity="0.9"/>
<path opacity="0.4" d="M22 32.1699C27.5228 32.1699 32 27.6928 32 22.1699C32 16.6471 27.5228 12.1699 22 12.1699C16.4772 12.1699 12 16.6471 12 22.1699C12 27.6928 16.4772 32.1699 22 32.1699Z" fill="#E44C7D" fill-opacity="0.5"/>
<path d="M24.2602 22.2695L22.7502 21.7395V18.3495H23.1102C23.9202 18.3495 24.5802 19.0595 24.5802 19.9295C24.5802 20.3395 24.9202 20.6795 25.3302 20.6795C25.7402 20.6795 26.0802 20.3395 26.0802 19.9295C26.0802 18.2295 24.7502 16.8495 23.1102 16.8495H22.7502V16.2695C22.7502 15.8595 22.4102 15.5195 22.0002 15.5195C21.5902 15.5195 21.2502 15.8595 21.2502 16.2695V16.8495H20.6002C19.1202 16.8495 17.9102 18.0995 17.9102 19.6295C17.9102 21.4195 18.9502 21.9895 19.7402 22.2695L21.2502 22.7995V26.1795H20.8902C20.0802 26.1795 19.4202 25.4695 19.4202 24.5995C19.4202 24.1895 19.0802 23.8495 18.6702 23.8495C18.2602 23.8495 17.9202 24.1895 17.9202 24.5995C17.9202 26.2995 19.2502 27.6795 20.8902 27.6795H21.2502V28.2695C21.2502 28.6795 21.5902 29.0195 22.0002 29.0195C22.4102 29.0195 22.7502 28.6795 22.7502 28.2695V27.6895H23.4002C24.8802 27.6895 26.0902 26.4395 26.0902 24.9095C26.0802 23.1095 25.0402 22.5395 24.2602 22.2695ZM20.2402 20.8595C19.7302 20.6795 19.4202 20.5095 19.4202 19.6395C19.4202 18.9295 19.9502 18.3595 20.6102 18.3595H21.2602V21.2195L20.2402 20.8595ZM23.4002 26.1895H22.7502V23.3295L23.7602 23.6795C24.2702 23.8595 24.5802 24.0295 24.5802 24.8995C24.5802 25.6095 24.0502 26.1895 23.4002 26.1895Z" fill="#E44C7D"/>
</svg>
