<svg width="44" height="45" viewBox="0 0 44 45" fill="none" xmlns="http://www.w3.org/2000/svg">
<rect y="0.269531" width="44" height="44" rx="6" fill="#DBF3FA"/>
<path opacity="0.4" d="M19 12.2695C16.38 12.2695 14.25 14.3995 14.25 17.0195C14.25 19.5895 16.26 21.6695 18.88 21.7595C18.96 21.7495 19.04 21.7495 19.1 21.7595C19.12 21.7595 19.13 21.7595 19.15 21.7595C19.16 21.7595 19.16 21.7595 19.17 21.7595C21.73 21.6695 23.74 19.5895 23.75 17.0195C23.75 14.3995 21.62 12.2695 19 12.2695Z" fill="#4AC2E4"/>
<path d="M24.0809 24.4204C21.2909 22.5604 16.7409 22.5604 13.9309 24.4204C12.6609 25.2704 11.9609 26.4204 11.9609 27.6504C11.9609 28.8804 12.6609 30.0204 13.9209 30.8604C15.3209 31.8004 17.1609 32.2704 19.0009 32.2704C20.8409 32.2704 22.6809 31.8004 24.0809 30.8604C25.3409 30.0104 26.0409 28.8704 26.0409 27.6304C26.0309 26.4004 25.3409 25.2604 24.0809 24.4204Z" fill="#4AC2E4"/>
<path opacity="0.4" d="M29.9894 17.6096C30.1494 19.5496 28.7694 21.2496 26.8594 21.4796C26.8494 21.4796 26.8494 21.4796 26.8394 21.4796H26.8094C26.7494 21.4796 26.6894 21.4796 26.6394 21.4996C25.6694 21.5496 24.7794 21.2396 24.1094 20.6696C25.1394 19.7496 25.7294 18.3696 25.6094 16.8696C25.5394 16.0596 25.2594 15.3196 24.8394 14.6896C25.2194 14.4996 25.6594 14.3796 26.1094 14.3396C28.0694 14.1696 29.8194 15.6296 29.9894 17.6096Z" fill="#4AC2E4"/>
<path d="M31.9883 26.8599C31.9083 27.8299 31.2883 28.6699 30.2483 29.2399C29.2483 29.7899 27.9883 30.0499 26.7383 30.0199C27.4583 29.3699 27.8783 28.5599 27.9583 27.6999C28.0583 26.4599 27.4683 25.2699 26.2883 24.3199C25.6183 23.7899 24.8383 23.3699 23.9883 23.0599C26.1983 22.4199 28.9783 22.8499 30.6883 24.2299C31.6083 24.9699 32.0783 25.8999 31.9883 26.8599Z" fill="#4AC2E4"/>
</svg>
