<svg width="44" height="45" viewBox="0 0 44 45" fill="none" xmlns="http://www.w3.org/2000/svg">
<rect y="0.269531" width="44" height="44" rx="6" fill="#FFF1EA"/>
<path d="M26.7502 13.8295V12.2695C26.7502 11.8595 26.4102 11.5195 26.0002 11.5195C25.5902 11.5195 25.2502 11.8595 25.2502 12.2695V13.7695H18.7502V12.2695C18.7502 11.8595 18.4102 11.5195 18.0002 11.5195C17.5902 11.5195 17.2502 11.8595 17.2502 12.2695V13.8295C14.5502 14.0795 13.2402 15.6895 13.0402 18.0795C13.0202 18.3695 13.2602 18.6095 13.5402 18.6095H30.4602C30.7502 18.6095 30.9902 18.3595 30.9602 18.0795C30.7602 15.6895 29.4502 14.0795 26.7502 13.8295Z" fill="#FAB520"/>
<path opacity="0.4" d="M31 21.1096V22.8496C31 23.4596 30.46 23.9296 29.86 23.8296C29.58 23.7896 29.29 23.7596 29 23.7596C25.97 23.7596 23.5 26.2296 23.5 29.2596C23.5 29.7196 23.68 30.3596 23.87 30.9396C24.09 31.5896 23.61 32.2596 22.92 32.2596H18C14.5 32.2596 13 30.2596 13 27.2596V21.0996C13 20.5496 13.45 20.0996 14 20.0996H30C30.55 20.1096 31 20.5596 31 21.1096Z" fill="#FAB520"/>
<path d="M29 25.2695C26.79 25.2695 25 27.0595 25 29.2695C25 30.0195 25.21 30.7295 25.58 31.3295C26.27 32.4895 27.54 33.2695 29 33.2695C30.46 33.2695 31.73 32.4895 32.42 31.3295C32.79 30.7295 33 30.0195 33 29.2695C33 27.0595 31.21 25.2695 29 25.2695ZM31.07 28.8395L28.94 30.8095C28.8 30.9395 28.61 31.0095 28.43 31.0095C28.24 31.0095 28.05 30.9395 27.9 30.7895L26.91 29.7995C26.62 29.5095 26.62 29.0295 26.91 28.7395C27.2 28.4495 27.68 28.4495 27.97 28.7395L28.45 29.2195L30.05 27.7395C30.35 27.4595 30.83 27.4795 31.11 27.7795C31.39 28.0795 31.37 28.5495 31.07 28.8395Z" fill="#FAB520"/>
<path d="M18.5 25.2685C18.24 25.2685 17.98 25.1585 17.79 24.9785C17.61 24.7885 17.5 24.5285 17.5 24.2685C17.5 24.0085 17.61 23.7485 17.79 23.5585C18.02 23.3285 18.37 23.2185 18.7 23.2885C18.76 23.2985 18.82 23.3185 18.88 23.3485C18.94 23.3685 19 23.3985 19.06 23.4385C19.11 23.4785 19.16 23.5185 19.21 23.5585C19.39 23.7485 19.5 24.0085 19.5 24.2685C19.5 24.5285 19.39 24.7885 19.21 24.9785C19.16 25.0185 19.11 25.0585 19.06 25.0985C19 25.1385 18.94 25.1685 18.88 25.1885C18.82 25.2185 18.76 25.2385 18.7 25.2485C18.63 25.2585 18.56 25.2685 18.5 25.2685Z" fill="#FAB520"/>
<path d="M22 25.2687C21.74 25.2687 21.48 25.1587 21.29 24.9787C21.11 24.7887 21 24.5287 21 24.2687C21 24.0087 21.11 23.7487 21.29 23.5587C21.67 23.1888 22.34 23.1888 22.71 23.5587C22.89 23.7487 23 24.0087 23 24.2687C23 24.5287 22.89 24.7887 22.71 24.9787C22.52 25.1587 22.26 25.2687 22 25.2687Z" fill="#FAB520"/>
<path d="M18.5 28.7684C18.24 28.7684 17.98 28.6584 17.79 28.4784C17.61 28.2884 17.5 28.0284 17.5 27.7684C17.5 27.5084 17.61 27.2484 17.79 27.0584C17.89 26.9684 17.99 26.8984 18.12 26.8484C18.49 26.6884 18.93 26.7784 19.21 27.0584C19.39 27.2484 19.5 27.5084 19.5 27.7684C19.5 28.0284 19.39 28.2884 19.21 28.4784C19.02 28.6584 18.76 28.7684 18.5 28.7684Z" fill="#FAB520"/>
</svg>
