<svg width="44" height="45" viewBox="0 0 44 45" fill="none" xmlns="http://www.w3.org/2000/svg">
<rect y="0.269531" width="44" height="44" rx="6" fill="#E9E9FF"/>
<g opacity="0.8">
<path opacity="0.4" d="M26.1766 10.2695H16.6234C12.4738 10.2695 10 12.7433 10 16.8929V26.4461C10 30.5957 12.4738 33.0695 16.6234 33.0695H26.1766C30.3262 33.0695 32.8 30.5957 32.8 26.4461V16.8929C32.8 12.7433 30.3262 10.2695 26.1766 10.2695Z" fill="#8484D7"/>
<path d="M28.5934 18.1011C28.5934 18.5685 28.2172 18.9561 27.7384 18.9561H21.7534C21.286 18.9561 20.8984 18.5685 20.8984 18.1011C20.8984 17.6337 21.286 17.2461 21.7534 17.2461H27.7384C28.2172 17.2461 28.5934 17.6337 28.5934 18.1011Z" fill="#8484D7"/>
<path d="M19.0841 16.9954L16.5191 19.5604C16.3481 19.7314 16.1315 19.8112 15.9149 19.8112C15.6983 19.8112 15.4703 19.7314 15.3107 19.5604L14.4557 18.7054C14.1137 18.3748 14.1137 17.8276 14.4557 17.497C14.7863 17.1664 15.3221 17.1664 15.6641 17.497L15.9149 17.7478L17.8757 15.787C18.2063 15.4564 18.7421 15.4564 19.0841 15.787C19.4147 16.1176 19.4147 16.6648 19.0841 16.9954Z" fill="#8484D7"/>
<path d="M28.5934 26.0796C28.5934 26.547 28.2172 26.9346 27.7384 26.9346H21.7534C21.286 26.9346 20.8984 26.547 20.8984 26.0796C20.8984 25.6122 21.286 25.2246 21.7534 25.2246H27.7384C28.2172 25.2246 28.5934 25.6122 28.5934 26.0796Z" fill="#8484D7"/>
<path d="M19.0841 24.9759L16.5191 27.5409C16.3481 27.7119 16.1315 27.7917 15.9149 27.7917C15.6983 27.7917 15.4703 27.7119 15.3107 27.5409L14.4557 26.6859C14.1137 26.3553 14.1137 25.8081 14.4557 25.4775C14.7863 25.1469 15.3221 25.1469 15.6641 25.4775L15.9149 25.7283L17.8757 23.7675C18.2063 23.4369 18.7421 23.4369 19.0841 23.7675C19.4147 24.0981 19.4147 24.6453 19.0841 24.9759Z" fill="#8484D7"/>
</g>
</svg>
