<svg width="60" height="61" viewBox="0 0 60 61" fill="none" xmlns="http://www.w3.org/2000/svg">
<rect y="0.269531" width="60" height="60" rx="6" fill="#E1F2E1"/>
<path d="M37.9183 16.2035V13.6035C37.9183 12.9202 37.3517 12.3535 36.6683 12.3535C35.985 12.3535 35.4183 12.9202 35.4183 13.6035V16.1035H24.585V13.6035C24.585 12.9202 24.0183 12.3535 23.335 12.3535C22.6517 12.3535 22.085 12.9202 22.085 13.6035V16.2035C17.585 16.6202 15.4017 19.3035 15.0684 23.2868C15.035 23.7702 15.435 24.1702 15.9017 24.1702H44.1017C44.585 24.1702 44.985 23.7535 44.935 23.2868C44.6017 19.3035 42.4183 16.6202 37.9183 16.2035Z" fill="#6AC069"/>
<path opacity="0.4" d="M43.3333 26.6699C44.25 26.6699 45 27.4199 45 28.3366V38.6033C45 43.6033 42.5 46.9366 36.6667 46.9366H23.3333C17.5 46.9366 15 43.6033 15 38.6033V28.3366C15 27.4199 15.75 26.6699 16.6667 26.6699H43.3333Z" fill="#6AC069"/>
<path d="M24.1667 35.2703C23.95 35.2703 23.7333 35.2204 23.5333 35.137C23.3333 35.0537 23.15 34.937 22.9833 34.787C22.8333 34.6203 22.7166 34.437 22.6333 34.237C22.55 34.037 22.5 33.8203 22.5 33.6037C22.5 33.387 22.55 33.1703 22.6333 32.9703C22.7166 32.7703 22.8333 32.587 22.9833 32.4203C23.15 32.2703 23.3333 32.1536 23.5333 32.0703C23.9333 31.9036 24.4 31.9036 24.8 32.0703C25 32.1536 25.1833 32.2703 25.35 32.4203C25.5 32.587 25.6167 32.7703 25.7 32.9703C25.7834 33.1703 25.8333 33.387 25.8333 33.6037C25.8333 33.8203 25.7834 34.037 25.7 34.237C25.6167 34.437 25.5 34.6203 25.35 34.787C25.1833 34.937 25 35.0537 24.8 35.137C24.6 35.2204 24.3833 35.2703 24.1667 35.2703Z" fill="#6AC069"/>
<path d="M29.9987 35.2692C29.782 35.2692 29.5654 35.2192 29.3654 35.1359C29.1654 35.0525 28.982 34.9358 28.8154 34.7858C28.5154 34.4691 28.332 34.0358 28.332 33.6025C28.332 33.1692 28.5154 32.7358 28.8154 32.4192C28.982 32.2692 29.1654 32.1525 29.3654 32.0691C29.7654 31.8858 30.232 31.8858 30.632 32.0691C30.832 32.1525 31.0154 32.2692 31.182 32.4192C31.482 32.7358 31.6654 33.1692 31.6654 33.6025C31.6654 34.0358 31.482 34.4691 31.182 34.7858C31.0154 34.9358 30.832 35.0525 30.632 35.1359C30.432 35.2192 30.2154 35.2692 29.9987 35.2692Z" fill="#6AC069"/>
<path d="M24.1667 41.1024C23.95 41.1024 23.7333 41.0524 23.5333 40.9691C23.3333 40.8857 23.15 40.769 22.9833 40.619C22.6833 40.3024 22.5 39.869 22.5 39.4357C22.5 39.0024 22.6833 38.569 22.9833 38.2524C23.15 38.1024 23.3333 37.9857 23.5333 37.9023C23.9333 37.7357 24.4 37.7357 24.8 37.9023C25 37.9857 25.1833 38.1024 25.35 38.2524C25.65 38.569 25.8333 39.0024 25.8333 39.4357C25.8333 39.869 25.65 40.3024 25.35 40.619C25.1833 40.769 25 40.8857 24.8 40.9691C24.6 41.0524 24.3833 41.1024 24.1667 41.1024Z" fill="#6AC069"/>
</svg>
