<svg width="44" height="45" viewBox="0 0 44 45" fill="none" xmlns="http://www.w3.org/2000/svg">
<rect y="0.269531" width="44" height="44" rx="6" fill="#FFF8DC"/>
<path opacity="0.4" d="M20.4901 12.5001L15.5002 14.3701C14.3502 14.8001 13.4102 16.1601 13.4102 17.3901V24.8201C13.4102 26.0001 14.1902 27.5501 15.1402 28.2601L19.4402 31.4701C20.8502 32.5301 23.1701 32.5301 24.5801 31.4701L28.8802 28.2601C29.8302 27.5501 30.6101 26.0001 30.6101 24.8201V17.3901C30.6101 16.1601 29.6701 14.8001 28.5201 14.3701L23.5302 12.5001C22.6802 12.1901 21.3201 12.1901 20.4901 12.5001Z" fill="#FFD012"/>
<path d="M21.9012 21.5688C21.9212 21.5688 21.9412 21.5688 21.9612 21.5688H21.9813H22.0013C23.1513 21.5288 24.0512 20.5988 24.0612 19.4388C24.0612 18.2588 23.1013 17.2988 21.9213 17.2988C20.7413 17.2988 19.7812 18.2588 19.7812 19.4388C19.8012 20.5888 20.7012 21.5288 21.9012 21.5688Z" fill="#FFD012"/>
<path d="M24.1902 23.6781C22.9802 22.8781 21.0201 22.8781 19.8001 23.6781C19.2401 24.0581 18.9102 24.5981 18.9102 25.1581C18.9102 25.7281 19.2301 26.2481 19.8001 26.6281C20.4101 27.0281 21.2001 27.2381 21.9901 27.2381C22.7801 27.2381 23.5801 27.0381 24.1801 26.6281C24.7401 26.2481 25.0702 25.7081 25.0702 25.1481C25.0802 24.5781 24.7602 24.0581 24.1902 23.6781Z" fill="#FFD012"/>
</svg>
