<svg width="44" height="45" viewBox="0 0 44 45" fill="none" xmlns="http://www.w3.org/2000/svg">
<rect y="0.269531" width="44" height="44" rx="6" fill="#F3F1EB"/>
<path opacity="0.4" d="M31 33.0195H13C12.59 33.0195 12.25 32.6795 12.25 32.2695C12.25 31.8595 12.59 31.5195 13 31.5195H31C31.41 31.5195 31.75 31.8595 31.75 32.2695C31.75 32.6795 31.41 33.0195 31 33.0195Z" fill="#967F60"/>
<path d="M15.6 18.6504H14C13.45 18.6504 13 19.1004 13 19.6504V28.2704C13 28.8204 13.45 29.2704 14 29.2704H15.6C16.15 29.2704 16.6 28.8204 16.6 28.2704V19.6504C16.6 19.0904 16.15 18.6504 15.6 18.6504Z" fill="#967F60"/>
<path d="M22.7992 15.459H21.1992C20.6492 15.459 20.1992 15.909 20.1992 16.459V28.269C20.1992 28.819 20.6492 29.269 21.1992 29.269H22.7992C23.3492 29.269 23.7992 28.819 23.7992 28.269V16.459C23.7992 15.909 23.3492 15.459 22.7992 15.459Z" fill="#967F60"/>
<path d="M29.9984 12.2695H28.3984C27.8484 12.2695 27.3984 12.7195 27.3984 13.2695V28.2695C27.3984 28.8195 27.8484 29.2695 28.3984 29.2695H29.9984C30.5484 29.2695 30.9984 28.8195 30.9984 28.2695V13.2695C30.9984 12.7195 30.5484 12.2695 29.9984 12.2695Z" fill="#967F60"/>
</svg>
